<svg width="96" height="96" viewBox="0 0 96 96" fill="none" xmlns="http://www.w3.org/2000/svg">
<g clip-path="url(#clip0_4_23)">
<path d="M-2 44.4266V47.8531L12.5021 47.8128L27.0041 47.7524L27.9887 44.7289C28.522 43.0559 29.0348 41.5442 29.0963 41.3426C29.1989 41.0201 28.3784 41 13.6097 41H-2V44.4266Z" fill="#FFECC6"/>
<path d="M33.7321 41.3427C33.3629 41.5241 32.8911 41.9071 32.686 42.1893C32.2757 42.7537 22.6145 72.5045 22.6145 73.1898C22.6145 73.6534 22.5735 73.6534 25.3632 74.5806C27.7015 75.3667 28.0708 75.407 28.3374 74.9232C28.8707 73.9154 38.2037 44.5678 38.2037 43.8623C38.2037 41.766 35.7218 40.3752 33.7321 41.3427Z" fill="#412920"/>
<path d="M41.0754 41.0807C41.0754 41.121 41.219 41.5443 41.3831 42.0079C41.8139 43.1971 41.7728 44.9507 41.2805 46.4826C41.0549 47.1679 40.8703 47.7726 40.8703 47.7927C40.8703 47.8331 43.6394 47.8532 47.0239 47.8532C50.4084 47.8532 53.1776 47.8331 53.1776 47.7927C53.1776 47.7726 52.993 47.1679 52.7673 46.4826C52.275 44.9507 52.234 43.1971 52.6648 42.0079C52.8289 41.5443 52.9724 41.121 52.9724 41.0807C52.9724 41.0404 50.3059 41 47.0239 41C43.7625 41 41.0754 41.0404 41.0754 41.0807Z" fill="#FFECC6"/>
<path d="M57.4851 41.3629C56.5211 41.8264 55.8442 42.8746 55.8442 43.8622C55.8442 44.5677 65.1772 73.9154 65.7105 74.903C65.9772 75.4069 66.3464 75.3666 68.6848 74.5805C71.4744 73.6533 71.4334 73.6735 71.4334 73.1897C71.4334 72.4843 61.7722 42.7536 61.3619 42.1893C60.562 41.0807 58.8184 40.6977 57.4851 41.3629Z" fill="#412920"/>
<path d="M64.9515 41.3427C65.013 41.5443 65.5258 43.056 66.0591 44.729L67.0437 47.7524L81.5458 47.8129L96.0478 47.8532V44.4266V41H80.4381C65.6694 41 64.8489 41.0202 64.9515 41.3427Z" fill="#FFECC6"/>
<path d="M3.53827 51.3402C3.53827 52.3077 9.77395 93.7693 9.97907 94.1523C10.3688 94.8981 10.8816 95.3415 11.8046 95.7245C12.461 95.9865 16.4609 96.0269 47.0239 96.0269C77.587 96.0269 81.5868 95.9865 82.2432 95.7245C83.1663 95.3415 83.6791 94.8981 84.0688 94.1523C84.3354 93.6484 90.6122 51.5015 90.4481 51.3402C90.407 51.2999 85.3816 51.2999 79.2895 51.3201L68.2129 51.3805L71.5769 61.761C74.0384 69.4003 74.9409 72.4238 74.9409 73.1695C74.9614 74.9433 73.9358 76.3543 72.1102 77.0799L71.4333 77.3218V80.4057C71.4333 83.8121 71.2897 84.3966 70.1616 85.6463C69.0539 86.9162 68.1514 87.2387 65.4848 87.3596L63.1259 87.4604L62.9003 89.5768C62.6952 91.4514 62.6131 91.7134 62.1208 92.1367C61.5055 92.6607 60.9722 92.7212 60.2953 92.3584C59.3927 91.8948 59.3107 91.6126 59.4338 89.4156L59.5568 87.3596H54.2237H48.87V89.1132C48.87 91.2498 48.4803 92.1971 47.5367 92.4592C45.9368 92.9026 45.1778 91.8142 45.1778 89.0729V87.3596H39.8242H34.4705L34.6141 89.2543C34.7782 91.4715 34.6756 91.8948 33.8962 92.2979C33.0757 92.7212 32.5629 92.6809 31.927 92.1367C31.4347 91.7134 31.3527 91.4514 31.1476 89.5567L30.9219 87.4604L28.563 87.3596C25.8965 87.2387 24.9939 86.9162 23.8863 85.6463C22.7581 84.3966 22.6145 83.7919 22.6145 80.4258V77.3822L21.4453 76.7775C19.9274 75.9914 19.107 74.7821 19.0864 73.3106C19.0864 72.5447 19.8864 69.8236 22.2863 62.3456C24.0709 56.8631 25.5888 52.1465 25.6913 51.824L25.876 51.2797H14.6969C8.56373 51.2797 3.53827 51.2999 3.53827 51.3402ZM13.1174 55.2304C13.3841 55.3916 13.6302 55.7141 13.6918 55.9762C13.9174 56.984 18.5121 90.0606 18.5121 90.7459C18.5121 91.6932 18.0814 92.3382 17.3224 92.4995C16.4609 92.6809 15.6609 92.2979 15.3532 91.5521C15.2097 91.1893 13.9994 83.1066 12.6456 73.5727C10.4303 57.7499 10.2457 56.218 10.5329 55.7343C11.1072 54.7466 12.0303 54.5652 13.1174 55.2304ZM83.2278 55.2102C83.5355 55.4924 83.7406 55.9359 83.7406 56.2584C83.7406 56.5607 82.6329 64.6031 81.2997 74.0967C79.5972 86.2107 78.7767 91.532 78.551 91.8746C78.1203 92.4995 77.1562 92.7212 76.4383 92.3584C75.2281 91.794 75.2076 92.2576 77.6075 75.2658C78.8177 66.6792 79.9253 58.7981 80.0689 57.7701C80.2535 56.2785 80.4176 55.7545 80.8074 55.2909C81.4638 54.5249 82.5099 54.4846 83.2278 55.2102Z" fill="#FFECC6"/>
<path d="M38.4088 55.3513C37.6909 57.6088 37.0755 59.564 37.014 59.6849C36.9525 59.8865 37.8345 59.947 41.0549 59.947H45.1778V58.1732C45.1778 56.0568 45.5676 55.1094 46.5111 54.8474C48.1111 54.404 48.87 55.4924 48.87 58.2337V59.947H52.9929C56.2133 59.947 57.0954 59.8865 57.0338 59.6849C56.9723 59.564 56.3569 57.6088 55.639 55.3513L54.3262 51.2797H47.0239H39.7216L38.4088 55.3513Z" fill="#FFECC6"/>
<path d="M33.7116 69.8639C32.5424 73.4517 31.4142 76.6768 31.1886 77.0396C30.3681 78.3497 28.1323 79.1157 26.5733 78.6118C26.1016 78.4707 26.1016 78.4707 26.1016 80.708C26.1016 82.8043 26.1221 82.9655 26.6144 83.4291L27.1067 83.933H47.0239H66.9412L67.4334 83.4291C67.9257 82.9655 67.9463 82.8043 67.9463 80.708V78.4908L67.3924 78.6319C65.772 79.0754 63.6592 78.3296 62.8592 77.0396C62.6336 76.6768 61.5055 73.4517 60.3363 69.8639L58.2235 63.3736H47.0239H35.8243L33.7116 69.8639Z" fill="#FFECC6"/>
</g>
<defs>
<clipPath id="clip0_4_23">
<rect width="96" height="96" fill="white"/>
</clipPath>
</defs>
</svg>
