<?xml version="1.0" standalone="no"?>
<!DOCTYPE svg PUBLIC "-//W3C//DTD SVG 20010904//EN"
 "http://www.w3.org/TR/2001/REC-SVG-20010904/DTD/svg10.dtd">
<svg xmlns="http://www.w3.org/2000/svg"
fill="transparent"
 width="1070.000000pt" height="1070.000000pt" viewBox="0 0 1070.000000 1070.000000"
 preserveAspectRatio="xMidYMid meet">

            <g fill="#FFECC6" transform="translate(0.000000,1070.000000) scale(0.100000,-0.100000)"
 stroke="none">
              <path d="M5310 8132 c0 -5 9 -17 21 -28 41 -37 62 -94 62 -171 0 -67 -4 -79
-61 -200 -34 -70 -66 -150 -73 -176 -28 -113 12 -248 97 -334 42 -41 72 -57
61 -30 -54 121 -61 145 -60 212 0 73 10 106 88 282 67 152 57 288 -27 380 -49
52 -108 88 -108 65z"/>
              <path d="M5050 7844 c19 -48 11 -91 -32 -171 -34 -65 -42 -90 -46 -150 -4 -64
    -2 -77 22 -117 24 -42 69 -86 86 -86 5 0 -1 24 -12 53 -27 69 -20 167 17 256
    33 80 35 147 6 195 -27 43 -55 57 -41 20z"/>
              <path d="M5697 7844 c13 -48 5 -102 -24 -157 -14 -29 -38 -73 -51 -99 -49 -95
    -35 -208 33 -283 32 -35 35 -37 29 -15 -3 14 -9 62 -11 107 -5 80 -4 84 38
    175 52 114 60 176 31 234 -11 22 -28 46 -37 54 -15 12 -15 11 -8 -16z"/>
              <path d="M5240 7060 c-41 -4 -112 -17 -157 -29 -45 -11 -112 -21 -148 -21
    -218 0 -484 -93 -652 -227 -23 -18 -78 -48 -122 -67 -162 -68 -285 -186 -356
    -339 -19 -42 -35 -80 -35 -86 0 -5 -4 -12 -9 -15 -5 -3 -21 29 -36 72 -60 172
    -148 255 -301 283 -66 13 -250 -1 -364 -27 -190 -43 -251 -148 -345 -589 -14
    -66 -28 -127 -30 -136 -3 -8 -25 -25 -50 -37 -64 -31 -130 -96 -160 -156 -13
    -28 -33 -93 -44 -144 -27 -133 -37 -137 -47 -23 -9 89 -25 81 -32 -17 -7 -103
    18 -196 93 -351 36 -74 64 -135 62 -137 -7 -7 -67 84 -112 168 -25 46 -45 80
    -45 76 0 -22 89 -191 141 -265 73 -103 104 -169 114 -237 5 -38 4 -47 -7 -44
    -25 9 -68 83 -84 148 -21 84 -53 147 -102 199 -42 45 -124 189 -163 284 -13
    32 -25 54 -27 49 -3 -11 74 -183 134 -298 19 -36 34 -74 34 -85 0 -10 4 -19 9
    -19 15 0 52 -67 66 -120 7 -28 10 -50 6 -50 -27 0 -91 102 -91 144 0 14 -15
    47 -34 73 -18 27 -75 120 -125 207 -92 161 -108 187 -95 151 9 -22 142 -274
    154 -290 29 -39 14 -42 -30 -5 -27 23 -50 46 -50 51 0 5 -4 9 -10 9 -5 0 -7
    -6 -4 -14 3 -7 -2 -16 -11 -19 -17 -7 -85 80 -169 216 -27 42 -53 80 -59 84
    -12 8 -16 14 96 -166 90 -145 124 -211 110 -211 -5 -1 -77 70 -162 157 -84 87
    -143 144 -130 126 35 -46 222 -258 293 -330 90 -94 44 -80 -66 20 -173 156
    -172 151 5 -31 97 -101 177 -190 177 -199 0 -22 -30 2 -309 241 -13 12 -21 15
    -17 9 19 -34 334 -308 407 -356 80 -51 117 -83 108 -92 -8 -8 -216 118 -306
    186 -51 38 -93 67 -93 65 0 -19 325 -252 416 -299 18 -9 45 -30 60 -48 37 -39
    88 -72 139 -89 22 -7 52 -25 67 -41 66 -66 204 -98 282 -65 21 9 44 16 50 16
    7 0 82 -50 166 -111 86 -61 156 -105 158 -99 5 15 12 9 -158 134 l-145 107 4
    69 c3 81 -14 127 -78 208 -47 58 -69 72 -82 51 -7 -11 -12 -9 -25 11 -10 14
    -43 51 -75 83 -59 58 -97 72 -105 39 -4 -13 -20 -2 -79 53 -81 78 -90 91 -106
    163 -13 61 -2 108 40 174 17 26 35 65 42 87 11 38 10 41 -21 81 -60 76 -73
    148 -43 235 22 67 96 141 156 156 34 8 48 18 56 37 6 15 40 142 76 282 69 270
    99 347 145 380 37 26 121 47 249 60 122 13 182 7 236 -23 69 -39 97 -90 160
    -284 32 -98 62 -186 67 -195 8 -16 13 -14 53 17 25 18 53 36 63 39 15 5 20 20
    25 74 11 114 55 220 126 305 141 169 329 230 547 177 86 -20 219 -70 260 -96
    37 -25 42 -8 8 27 -46 49 -151 105 -259 139 -154 49 -148 44 -83 68 79 30 181
    44 253 37 159 -17 341 -89 468 -184 92 -71 89 -40 -6 53 -52 51 -96 83 -157
    114 -87 43 -234 92 -278 92 -47 0 -17 8 86 24 121 18 281 8 410 -24 124 -32
    269 -110 357 -192 41 -38 75 -65 75 -60 0 29 -45 108 -85 151 -63 67 -137 116
    -236 157 l-84 34 130 -4 c102 -3 149 -10 218 -30 203 -60 395 -192 499 -344
    37 -54 47 -42 22 25 -25 67 -58 118 -125 195 -41 45 -55 69 -47 74 8 5 6 10
    -8 15 -16 6 -14 8 10 8 45 1 205 -56 278 -100 134 -81 231 -182 301 -314 39
    -74 42 -78 45 -50 8 63 -29 175 -81 249 l-20 28 24 -7 c89 -28 220 -124 306
    -224 68 -80 156 -243 169 -314 5 -29 16 -44 48 -66 22 -16 60 -49 84 -74 l43
    -44 77 39 c97 49 188 68 327 68 246 0 434 -73 520 -202 70 -108 78 -208 39
    -519 l-17 -136 23 -23 c62 -62 73 -156 29 -247 -20 -41 -153 -193 -169 -193
    -4 0 -5 11 -2 25 3 20 0 25 -17 25 -25 0 -111 -77 -142 -127 -17 -27 -24 -32
    -35 -22 -12 10 -25 2 -68 -43 -63 -65 -86 -123 -86 -218 l0 -66 -102 -79
    c-133 -104 -175 -142 -166 -151 6 -6 59 31 261 180 26 19 29 19 75 3 94 -34
    207 -11 273 56 14 14 52 36 84 48 42 15 75 38 113 76 30 29 73 63 95 75 85 43
    397 267 397 284 0 3 -35 -21 -77 -53 -118 -87 -201 -142 -268 -175 l-60 -30
    30 32 c17 17 60 51 96 75 62 40 314 259 369 320 14 16 -36 -22 -110 -84 -154
    -130 -175 -144 -191 -139 -7 2 73 89 177 193 203 204 212 219 33 58 -101 -91
    -139 -117 -139 -97 0 5 164 191 289 328 76 83 -11 5 -118 -107 -63 -64 -116
    -115 -118 -113 -8 8 26 74 89 171 80 124 122 195 114 195 -3 0 -49 -66 -102
    -147 -53 -82 -100 -152 -105 -157 -6 -6 -14 -3 -23 9 -12 17 -11 23 9 55 32
    51 79 149 60 125 -9 -11 -34 -49 -55 -85 -32 -55 -140 -176 -129 -145 2 6 39
    80 83 165 92 182 87 187 -11 9 -104 -186 -142 -244 -155 -231 -13 13 -3 40 64
    166 51 94 98 201 98 220 0 6 -21 -31 -45 -83 -56 -117 -105 -199 -165 -276
    -59 -75 -66 -88 -101 -192 -43 -127 -99 -194 -85 -100 10 66 34 129 66 172 84
    114 131 188 167 260 57 114 63 146 8 46 -56 -103 -135 -224 -142 -217 -3 3 20
    54 50 114 97 189 127 317 104 435 -12 59 -24 43 -29 -41 -2 -42 -9 -86 -15
    -97 -10 -18 -12 -17 -31 13 -15 27 -20 58 -25 165 -8 204 -52 320 -164 431
    -127 128 -318 180 -758 206 -99 6 -204 13 -233 17 l-52 6 -43 91 c-118 247
    -349 437 -580 478 -39 7 -98 30 -162 64 -166 87 -317 124 -507 124 -49 0 -133
    9 -186 19 -119 24 -243 31 -342 21z m3290 -1987 c0 -33 -35 -85 -77 -114 -24
    -17 -47 -29 -50 -26 -12 13 22 80 63 122 43 45 64 50 64 18z m-6268 -30 c58
    -60 86 -113 60 -113 -23 0 -102 65 -116 94 -37 78 -10 87 56 19z m6078 -84 c0
    -38 -21 -83 -61 -129 l-31 -35 5 42 c7 56 52 153 71 153 11 0 16 -10 16 -31z
    m-6015 -79 c22 -10 54 -32 70 -50 l30 -32 -40 7 c-80 15 -155 59 -155 92 0 16
    34 10 95 -17z m6154 -11 c-12 -17 -37 -38 -55 -45 -38 -16 -104 -19 -104 -5 0
    24 106 79 153 80 l28 1 -22 -31z m-5775 -89 c41 -55 76 -153 61 -168 -7 -8
    -64 48 -80 79 -19 36 -44 149 -34 149 5 0 29 -27 53 -60z m5355 -10 c-13 -66
    -62 -153 -90 -158 -14 -3 -15 3 -8 43 5 25 14 55 20 68 19 36 81 118 86 113 2
    -2 -1 -32 -8 -66z m-5174 -117 c31 -65 46 -158 24 -151 -25 8 -55 65 -93 172
    -20 58 -36 109 -36 113 1 19 82 -84 105 -134z m5030 26 c-26 -93 -65 -169 -87
    -169 -18 0 -2 104 25 163 26 57 79 126 85 109 1 -5 -9 -52 -23 -103z m-5416
    62 c20 -11 43 -27 50 -35 12 -14 7 -16 -50 -16 -68 0 -177 40 -164 60 11 18
    123 12 164 -9z m5880 10 c11 -7 7 -14 -20 -30 -42 -26 -79 -33 -149 -29 l-55
    3 55 32 c42 25 67 33 105 33 28 0 56 -4 64 -9z m-5380 -140 c17 -21 40 -59 51
    -82 20 -45 27 -124 11 -133 -11 -7 -44 30 -65 72 -20 38 -47 182 -35 182 4 0
    21 -18 38 -39z m4770 -31 c-5 -30 -15 -68 -21 -85 -16 -43 -56 -95 -74 -95
    -19 0 -19 79 1 127 20 47 85 127 95 116 5 -4 4 -33 -1 -63z m-5102 26 c77 -36
    69 -49 -25 -45 -66 3 -85 9 -121 32 -24 16 -39 32 -35 39 11 17 120 1 181 -26z
    m5563 3 c-68 -54 -132 -69 -215 -49 -30 7 -29 7 35 38 54 27 77 32 135 32 l70
    0 -25 -21z m-5429 -109 c20 -6 44 -19 53 -29 17 -19 16 -20 -39 -26 -78 -10
    -137 -2 -180 25 -27 17 -33 25 -23 31 18 12 145 11 189 -1z m5313 1 c17 -7 15
    -10 -16 -29 -19 -12 -52 -25 -74 -30 -41 -8 -143 3 -158 18 -9 9 20 27 63 41
    33 9 160 10 185 0z m-5143 -117 c14 -7 31 -19 37 -27 15 -18 -11 -27 -81 -27
    -48 0 -147 34 -147 51 0 8 8 11 65 22 29 6 96 -4 126 -19z m4968 6 c9 -5 2
    -14 -25 -31 -29 -18 -56 -25 -109 -27 -82 -3 -109 8 -83 34 35 35 167 50 217
    24z"/>
              <path d="M3176 6370 c-45 -6 -75 -15 -87 -27 -12 -12 -48 -134 -105 -358 -47
    -187 -88 -343 -90 -346 -2 -3 -31 -9 -64 -12 -80 -9 -116 -28 -130 -72 -10
    -30 -9 -41 7 -73 15 -30 27 -40 65 -52 35 -11 48 -20 48 -34 0 -11 -16 -70
    -35 -132 -26 -82 -45 -124 -71 -155 -40 -48 -41 -73 -2 -102 33 -25 200 -37
    247 -17 38 15 58 61 42 96 -17 38 -13 133 10 233 17 75 24 91 39 91 29 0 317
    -68 339 -79 12 -7 23 -29 30 -61 16 -73 14 -104 -9 -143 -16 -26 -18 -40 -11
    -59 17 -45 30 -49 132 -38 125 13 438 38 624 49 136 9 151 11 167 31 25 30 23
    44 -11 82 -42 48 -52 95 -58 279 -6 181 8 282 47 347 30 49 46 41 53 -24 7
    -68 27 -101 75 -121 72 -30 160 4 202 79 32 55 33 146 4 203 -71 137 -268 115
    -372 -40 -19 -28 -38 -51 -43 -53 -5 -2 -9 25 -9 60 0 39 -5 72 -14 83 -13 18
    -19 18 -72 7 -99 -20 -220 -61 -248 -83 -34 -27 -33 -50 5 -94 39 -44 47 -97
    56 -396 l6 -217 -26 -26 c-63 -63 -77 -39 -216 384 -66 201 -145 444 -176 540
    -31 96 -66 193 -78 215 l-23 40 -89 1 c-50 1 -121 -2 -159 -6z m99 -589 c42
    -139 74 -255 71 -258 -10 -10 -266 62 -266 75 0 13 88 417 96 441 3 9 8 11 14
    5 5 -5 43 -123 85 -263z"/>
              <path d="M5035 6070 c-121 -24 -223 -89 -284 -181 -53 -79 -72 -142 -78 -261
    -12 -208 58 -381 183 -454 144 -84 396 -86 540 -4 138 80 214 233 214 435 0
    297 -173 478 -455 474 -44 -1 -98 -5 -120 -9z m175 -150 c44 -48 55 -111 55
    -330 0 -158 -3 -206 -18 -252 -40 -132 -156 -132 -201 -1 -38 110 -46 387 -16
    506 18 69 57 107 110 107 34 0 47 -6 70 -30z"/>
              <path d="M5860 6063 c-14 -2 -57 -13 -97 -25 -112 -32 -137 -68 -88 -126 13
    -16 29 -41 35 -56 12 -32 13 -386 1 -499 -7 -69 -12 -82 -40 -111 -35 -36 -41
    -80 -13 -94 9 -5 99 -12 199 -16 175 -7 183 -6 203 14 26 26 25 38 -5 82 -24
    36 -25 42 -25 215 0 326 31 443 116 443 44 0 71 -31 80 -88 8 -52 -4 -448 -15
    -509 -5 -23 -20 -56 -35 -73 -29 -36 -33 -62 -11 -80 29 -24 381 -40 403 -18
    18 18 14 56 -10 88 -21 28 -21 35 -15 242 7 224 23 334 55 378 44 59 117 46
    140 -25 11 -33 10 -78 -3 -265 -20 -297 -21 -302 -56 -346 -31 -39 -32 -67 -3
    -90 14 -11 235 -37 320 -38 78 -1 105 52 63 121 -26 41 -26 85 -8 393 14 230
    10 280 -28 337 -51 79 -142 118 -258 111 -77 -5 -132 -28 -191 -81 -23 -19
    -39 -27 -41 -20 -12 34 -68 95 -105 114 -99 51 -228 32 -334 -47 l-59 -44 -10
    47 c-5 27 -14 54 -18 61 -8 12 -89 15 -147 5z"/>
              <path d="M7402 5944 c-133 -35 -202 -103 -202 -197 0 -81 58 -127 161 -127 56
    0 64 3 93 33 29 28 34 41 40 104 8 80 19 93 75 93 94 0 145 -87 110 -188 -15
    -43 -60 -68 -149 -82 -199 -31 -278 -60 -337 -122 -67 -70 -91 -181 -61 -282
    30 -99 139 -160 288 -159 82 1 131 16 189 60 19 15 36 23 38 17 14 -41 44 -82
    72 -98 48 -28 194 -35 242 -12 63 29 91 108 44 120 -53 13 -57 69 -29 402 15
    182 16 229 6 263 -25 80 -122 147 -257 176 -88 18 -253 18 -323 -1z m261 -461
    c11 -18 -15 -209 -33 -250 -42 -95 -166 -81 -185 21 -11 56 12 132 51 172 42
    41 154 79 167 57z"/>
              <path d="M3140 5206 c-7 -23 -8 -41 0 -60 16 -43 12 -136 -9 -181 -20 -45 -80
    -102 -123 -117 -35 -13 -35 -19 2 -46 36 -27 87 -96 163 -217 44 -72 136 -177
    213 -245 3 -3 3 55 -1 129 -7 121 -11 140 -36 189 -23 43 -29 67 -29 117 0 34
    5 76 11 94 10 29 8 34 -25 71 -19 22 -38 52 -41 67 -4 16 -8 36 -10 46 -2 11
    1 42 6 70 16 95 19 89 -36 103 -70 19 -72 18 -85 -20z"/>
              <path d="M5275 5057 c-16 -12 -16 -18 -7 -47 18 -49 17 -50 -45 -44 -50 5 -63
    3 -93 -18 -19 -13 -41 -35 -48 -50 -33 -70 -22 -179 23 -224 19 -19 35 -24 75
    -24 28 0 61 5 72 11 14 8 23 8 31 0 6 -6 34 -11 63 -11 59 0 74 17 49 53 -12
    17 -15 57 -15 194 l0 173 -43 0 c-24 0 -51 -6 -62 -13z m-15 -157 c16 -16 20
    -33 20 -89 0 -38 -4 -81 -9 -94 -14 -36 -48 -41 -78 -11 -23 23 -25 31 -21
    101 3 64 7 78 27 94 29 24 36 24 61 -1z"/>
              <path d="M5510 4948 c-46 -32 -70 -82 -70 -146 0 -109 52 -157 167 -157 72 0
    116 25 121 69 5 40 -22 43 -63 7 -20 -17 -42 -31 -51 -31 -27 0 -66 48 -62 78
    l3 27 93 3 c102 3 100 1 82 77 -5 24 -21 51 -40 68 -26 23 -39 27 -89 27 -44
    0 -66 -6 -91 -22z m124 -44 c19 -50 2 -74 -55 -74 -24 0 -29 4 -29 23 0 51 68
    93 84 51z"/>
              <path d="M6145 4934 c-244 -20 -271 -29 -110 -38 495 -26 823 -54 882 -77 31
    -11 40 -37 20 -56 -13 -14 -30 -14 -139 -4 -176 16 -765 33 -818 23 -39 -6
    -17 -11 156 -30 110 -13 261 -32 335 -43 74 -12 213 -25 309 -29 174 -8 237
    -20 339 -60 112 -44 193 -123 227 -222 8 -27 19 -48 23 -48 9 0 78 73 123 130
    19 25 61 90 94 145 32 55 80 123 106 151 26 28 48 53 48 56 0 3 -15 9 -34 12
    -19 4 -50 18 -70 31 -36 24 -37 24 -99 10 -34 -8 -83 -15 -109 -15 -62 0 -180
    23 -251 50 -55 21 -60 21 -98 6 -49 -20 -105 -20 -289 0 -196 21 -439 24 -645
    8z"/>
              <path d="M4430 4931 c0 -5 11 -16 25 -25 21 -14 59 -16 252 -16 139 0 223 4
    217 9 -23 23 -494 54 -494 32z"/>
              <path d="M3870 4873 c-315 -25 -372 -32 -391 -49 -27 -25 -24 -58 11 -98 l31
    -35 19 -448 c26 -586 27 -533 -15 -583 -50 -60 -47 -98 10 -120 34 -13 351 -6
    539 11 312 30 452 122 486 322 28 159 -54 305 -206 368 -30 13 -54 25 -54 29
    0 3 16 14 36 25 46 24 92 77 117 134 30 67 29 189 -1 256 -72 158 -246 214
    -582 188z m180 -161 c23 -11 43 -33 58 -62 20 -40 23 -57 20 -145 -3 -84 -6
    -105 -25 -131 -29 -41 -81 -65 -153 -71 l-57 -5 -6 77 c-9 101 -9 340 0 348
    14 14 128 7 163 -11z m55 -575 c54 -30 85 -88 92 -175 10 -122 -31 -217 -111
    -253 -52 -24 -148 -26 -167 -3 -9 11 -15 73 -19 222 -3 114 -4 212 -2 219 6
    18 31 22 102 17 40 -3 80 -13 105 -27z"/>
    <path d="M4570 4771 c5 -11 14 -22 18 -25 4 -2 73 2 152 10 80 7 154 14 165
    15 60 4 -90 18 -208 18 -133 1 -137 0 -127 -18z"/>
    <path d="M5145 4538 c-57 -21 -103 -57 -135 -107 -18 -28 -37 -48 -41 -45 -5
    3 -9 34 -9 68 0 82 -10 91 -93 83 -74 -7 -215 -47 -251 -70 -36 -24 -34 -63 5
    -103 41 -42 49 -102 49 -379 0 -217 0 -221 -26 -268 -14 -27 -24 -60 -22 -75
    5 -47 33 -52 233 -46 175 6 181 7 203 31 31 33 28 47 -17 95 -48 49 -54 82
    -55 293 0 104 4 159 18 213 20 78 52 135 79 140 14 3 17 -5 17 -52 0 -47 4
    -61 28 -87 32 -36 79 -48 140 -37 89 16 132 77 132 186 0 111 -59 173 -164
    171 -34 0 -74 -5 -91 -11z"/>
    <path d="M5715 4536 c-72 -18 -145 -58 -193 -106 -148 -148 -173 -489 -50
    -674 39 -60 133 -131 201 -151 69 -21 218 -30 287 -17 193 36 311 147 355 334
    19 81 19 238 0 311 -56 216 -202 318 -450 316 -55 0 -122 -6 -150 -13z m208
    -136 c50 -40 62 -103 62 -330 0 -222 -7 -267 -51 -320 -21 -24 -34 -30 -66
    -30 -52 0 -74 13 -97 58 -28 56 -41 141 -41 276 1 205 29 328 83 354 35 17 82
    14 110 -8z"/>
                <path d="M6708 4529 c-105 -14 -176 -45 -229 -99 -58 -59 -71 -110 -42 -167
    28 -57 63 -77 142 -81 60 -4 71 -1 95 19 28 25 45 77 46 141 0 45 28 68 83 68
    49 0 90 -21 105 -55 17 -37 15 -126 -4 -153 -23 -34 -45 -41 -173 -62 -150
    -25 -222 -52 -279 -104 -63 -57 -92 -123 -92 -209 0 -111 38 -174 135 -225 45
    -25 60 -27 160 -27 94 0 116 3 151 22 22 12 46 29 53 37 20 23 38 19 53 -11
    22 -45 71 -66 164 -71 100 -5 144 2 172 29 26 23 29 71 6 90 -45 37 -47 56
    -39 360 6 270 6 290 -12 331 -22 48 -76 101 -126 122 -97 40 -257 60 -369 45z
    m199 -578 c-10 -164 -46 -231 -124 -231 -69 0 -103 43 -103 131 0 115 90 207
    204 209 l29 0 -6 -109z"/>
    <path d="M8405 4350 c-62 -15 -120 -29 -374 -86 -35 -8 -81 -24 -103 -35 -26
    -13 -47 -17 -61 -13 -31 11 -63 5 -123 -21 -69 -31 -127 -85 -152 -143 l-21
    -48 -106 -33 c-58 -19 -108 -37 -110 -42 -12 -18 17 -16 114 12 l103 29 37
    -29 c91 -71 168 -87 342 -72 163 14 390 43 384 49 -2 2 -90 -4 -195 -14 -147
    -14 -193 -15 -202 -6 -9 9 -4 12 25 12 20 0 83 9 140 19 56 11 158 27 227 36
    182 23 331 47 326 52 -3 4 -141 -11 -303 -32 -18 -2 -33 0 -33 4 0 7 127 37
    300 70 189 36 198 39 165 40 -16 1 -65 -6 -108 -14 -43 -8 -93 -15 -110 -15
    -29 1 -30 2 -12 13 11 6 60 25 109 43 82 29 87 31 58 37 -67 13 -44 25 156 78
    161 43 71 30 -168 -24 -78 -18 -190 -31 -190 -23 0 9 29 20 210 83 85 29 139
    51 120 47 -19 -3 -109 -30 -200 -60 -151 -49 -194 -55 -176 -25 4 5 56 29 116
    52 61 23 109 44 107 46 -3 2 -42 -10 -88 -28 -93 -34 -271 -81 -278 -73 -9 9
    21 23 129 59 58 19 112 40 120 46 12 9 11 10 -5 4 -119 -39 -253 -75 -282 -75
    -19 0 -62 -7 -95 -16 -33 -8 -62 -13 -65 -10 -10 10 47 31 201 73 88 24 162
    46 165 48 8 8 -22 4 -94 -15z m-375 -157 c-66 -75 -101 -101 -159 -123 -29
    -11 -56 -19 -58 -16 -9 8 26 61 64 98 41 40 133 86 172 87 22 1 21 -2 -19 -46z
    m210 32 c0 -3 -17 -20 -37 -40 -46 -42 -127 -85 -162 -85 -24 0 -24 1 14 41
    45 46 77 65 132 78 49 12 53 12 53 6z m133 -54 c-41 -37 -102 -61 -155 -61
    -20 0 -20 2 12 30 50 42 110 70 150 70 l35 -1 -42 -38z m-543 20 c0 -17 -101
    -132 -133 -152 -35 -21 -77 -25 -77 -8 0 21 38 74 70 97 25 19 126 71 138 72
    1 0 2 -4 2 -9z m725 -51 c18 -7 17 -9 -15 -29 -19 -11 -44 -21 -55 -22 -35 -2
    -78 3 -99 10 -19 7 -18 10 14 26 66 34 94 37 155 15z m-170 -88 c23 -12 9 -21
    -49 -28 -48 -7 -126 18 -126 39 0 12 151 3 175 -11z m-199 -27 c40 -30 37 -45
    -10 -45 -38 0 -137 48 -144 69 -9 26 113 7 154 -24z m-188 -33 c28 -15 52 -29
    52 -33 0 -11 -67 -20 -97 -13 -35 8 -123 55 -123 65 0 11 49 17 85 11 17 -2
    54 -16 83 -30z m-170 -48 c34 -19 62 -40 62 -46 0 -21 -130 -1 -189 29 -64 32
    -74 50 -34 56 49 8 96 -4 161 -39z"/>
                <path d="M2151 4346 c4 -4 57 -24 120 -46 62 -22 117 -45 123 -51 18 -19 -78
    -1 -194 36 -57 19 -106 33 -108 31 -2 -2 27 -14 63 -26 66 -22 126 -62 113
    -75 -4 -4 -55 9 -115 29 -129 42 -252 76 -273 75 -8 0 35 -15 95 -34 153 -46
    204 -65 212 -78 11 -17 -137 0 -279 34 -72 16 -132 28 -135 26 -2 -3 9 -8 24
    -11 109 -27 253 -70 253 -76 0 -4 -17 -11 -37 -15 l-38 -7 70 -23 c39 -13 88
    -33 110 -45 l40 -21 -55 5 c-30 3 -77 8 -105 10 -53 6 -8 -5 175 -39 47 -9
    114 -25 150 -36 l65 -19 -72 5 c-40 3 -106 7 -145 10 -40 3 -68 3 -63 0 9 -4
    391 -62 573 -87 50 -7 70 -14 60 -20 -15 -10 -131 -3 -292 18 -115 15 -152 17
    -145 9 13 -12 400 -57 514 -58 117 -2 135 0 182 21 28 13 61 35 74 48 12 13
    32 24 43 24 19 0 187 -39 237 -55 13 -4 19 -2 19 9 0 15 -25 25 -130 51 -105
    26 -130 36 -130 51 0 24 -36 87 -67 116 -60 57 -214 110 -225 77 -2 -6 -30 2
    -69 21 -36 17 -99 37 -140 45 -41 7 -132 28 -202 44 -173 42 -180 38 -17 -10
    124 -37 176 -59 139 -59 -52 0 -297 59 -409 98 -8 3 -12 2 -9 -2z m627 -148
    c57 -28 152 -116 152 -141 0 -4 -12 -5 -27 -1 -64 15 -112 46 -178 114 -64 66
    -67 72 -40 65 17 -3 58 -20 93 -37z m-221 21 c32 -8 62 -28 104 -67 33 -30 58
    -56 56 -58 -2 -2 -28 3 -58 12 -57 17 -118 55 -158 98 -29 31 -19 33 56 15z
    m-132 -28 c46 -21 108 -81 83 -81 -51 0 -188 65 -188 90 0 16 62 11 105 -9z
    m553 -25 c68 -34 150 -131 130 -152 -3 -2 -29 8 -59 24 -38 19 -68 46 -102 90
    -55 70 -48 78 31 38z m-665 -33 c46 -19 47 -29 5 -39 -48 -10 -79 -7 -126 11
    -50 21 -53 31 -9 44 36 11 74 6 130 -16z m207 -71 c0 -13 -68 -42 -98 -42 -15
    1 -40 7 -57 14 l-30 14 25 10 c30 13 160 16 160 4z m170 -27 c-18 -21 -119
    -56 -153 -53 -84 8 5 67 102 68 55 0 62 -2 51 -15z m195 -25 c16 -26 -155 -79
    -200 -61 -18 7 -18 8 5 23 59 37 88 47 137 48 28 0 55 -4 58 -10z m200 -39 c7
    -13 -42 -46 -90 -61 -22 -6 -69 -10 -105 -8 l-65 3 75 38 c57 28 86 37 127 37
    28 0 54 -4 58 -9z"/>
              <path d="M1948 4163 c7 -3 16 -2 19 1 4 3 -2 6 -13 5 -11 0 -14 -3 -6 -6z"/>
              <path d="M8828 4103 c6 -2 18 -2 25 0 6 3 1 5 -13 5 -14 0 -19 -2 -12 -5z"/>
              <path d="M1938 4093 c6 -2 18 -2 25 0 6 3 1 5 -13 5 -14 0 -19 -2 -12 -5z"/>
              <path d="M2093 4013 c9 -2 23 -2 30 0 6 3 -1 5 -18 5 -16 0 -22 -2 -12 -5z"/>
              <path d="M2293 3933 c9 -2 23 -2 30 0 6 3 -1 5 -18 5 -16 0 -22 -2 -12 -5z"/>
              <path d="M8363 3923 c9 -2 23 -2 30 0 6 3 -1 5 -18 5 -16 0 -22 -2 -12 -5z"/>
              <path d="M3215 3740 c-214 -33 -325 -65 -325 -95 0 -26 49 -37 172 -38 65 -1
118 -5 118 -9 0 -4 -26 -12 -57 -18 -213 -41 -353 -87 -353 -114 0 -37 79 -42
355 -21 59 4 57 4 -67 -38 -123 -41 -178 -73 -164 -96 10 -16 133 -14 250 4
144 22 154 17 41 -19 -113 -36 -155 -60 -155 -87 0 -32 46 -33 248 -5 107 15
196 25 199 23 2 -3 -36 -17 -84 -32 -116 -36 -165 -61 -161 -83 5 -25 92 -20
388 23 650 93 1119 127 1735 128 675 1 1055 -27 1764 -129 173 -25 328 -44
345 -42 19 2 32 9 34 20 4 21 -43 46 -160 84 -48 15 -86 30 -84 31 2 2 85 -8
185 -22 212 -31 265 -30 269 2 3 18 -8 27 -60 51 -35 17 -92 38 -128 47 -36 9
-69 21 -75 27 -7 7 -4 9 10 5 51 -14 276 -38 330 -35 48 2 60 7 63 21 5 23
-66 56 -199 93 -54 15 -98 29 -96 30 1 1 83 -2 182 -8 187 -11 235 -5 235 26
0 26 -53 45 -232 86 -94 22 -173 42 -175 44 -2 1 52 5 120 8 68 3 134 11 146
17 26 15 27 37 1 51 -39 21 -373 90 -435 90 -13 0 -13 -5 4 -37 51 -102 27
-197 -69 -266 -91 -65 -280 -75 -400 -21 -60 27 -61 27 -112 10 -168 -54 -374
-15 -492 94 l-45 42 -33 -25 c-45 -34 -143 -81 -203 -98 -32 -9 -100 -14 -190
-14 -119 0 -152 4 -215 23 -97 31 -151 62 -226 133 -57 55 -62 58 -100 53 -79
-11 -83 -13 -108 -63 -14 -27 -40 -61 -58 -76 -66 -56 -84 -59 -325 -60 l-221
0 -44 31 -45 31 -46 -24 c-62 -31 -209 -69 -322 -83 -128 -15 -528 -29 -605
-20 -135 15 -201 82 -201 205 0 62 9 89 47 143 16 22 16 22 -17 21 -19 0 -88
-9 -154 -19z"/>
            </g>
          </svg>