<svg width="96" height="96" viewBox="0 0 96 96" fill="none" xmlns="http://www.w3.org/2000/svg">
<g clip-path="url(#clip0_4_2)">
<path d="M49.8076 2.61086V5.22174H54.9289H60.0502V2.61086V-1.62721e-05H54.9289H49.8076V2.61086Z" fill="#4829F5"/>
<path d="M86.1389 0.281172C82.564 1.30544 78.4268 5.38243 74.7715 11.4879C73.3255 13.8979 71.1364 18.1556 69.9314 20.9272L69.0879 22.8552L69.6301 24.4418C70.1724 25.9883 70.1925 26.0887 70.2527 31.8728L70.333 37.7573H79.6117H88.9105L89.7741 35.5883C92.5657 28.5992 94.6544 21.6703 95.518 16.3481C96.0201 13.3356 96.0201 8.23431 95.518 6.42678C94.4536 2.53054 91.923 0.281172 88.3682 0.0803356C87.6452 0.0401683 86.641 0.140587 86.1389 0.281172ZM87.7255 6.70795C90.2561 7.69205 91.0192 8.09373 91.7824 8.95732C92.6862 10.0017 93.0276 10.9456 93.0276 12.3515C93.0276 14.3197 92.164 15.7858 90.3966 16.8301C89.6335 17.272 89.2318 17.3724 88.0669 17.3724C86.8619 17.3724 86.3397 17.2318 84.492 16.4887C81.7406 15.364 80.9171 14.7816 80.2343 13.3757C79.2502 11.3674 79.5715 9.15816 81.0979 7.55147C82.7648 5.82427 84.733 5.56318 87.7255 6.70795ZM82.4636 21.2285C86.8218 22.9356 87.7255 23.5381 88.4887 25.1849C89.6937 27.7757 88.4485 30.949 85.7774 32.0937C84.251 32.7364 82.9858 32.5155 78.728 30.8084C75.2937 29.4427 74.6912 29.1414 73.8678 28.3381C71.2971 25.7874 72.1205 21.6301 75.5146 20.1038C77.1816 19.3406 78.1054 19.5013 82.4636 21.2285Z" fill="#EBA635"/>
<path d="M83.5883 9.90127C83.0862 10.4234 82.9858 11.5682 83.4075 12.1105C83.7088 12.5122 87.4444 14.0586 88.1071 14.0586C89.2519 14.0586 89.995 12.3314 89.272 11.3071C88.9105 10.785 85.5967 9.43935 84.6929 9.43935C84.251 9.43935 83.8695 9.60002 83.5883 9.90127Z" fill="#EBA635"/>
<path d="M76.559 23.2369C76.2377 23.3574 75.7155 24.3615 75.7155 24.8837C75.7155 25.7071 76.5791 26.2695 79.9331 27.6151C81.7406 28.3381 83.528 28.9205 83.9096 28.9205C85.3155 28.9205 86.0586 27.2737 85.1146 26.2494C84.8335 25.9481 83.3473 25.2452 81.2787 24.4218C78.1858 23.1967 77.2418 22.9557 76.559 23.2369Z" fill="#EBA635"/>
<path d="M19.4611 3.99663L18.8787 4.57906V8.5958V12.5924L19.4812 12.733C20.4854 12.9339 22.9356 14.0184 24.0803 14.7615C25.1247 15.4443 25.1849 15.4644 27.2335 15.4644C28.9205 15.4644 29.4828 15.3841 30.1054 15.0627C31.672 14.2795 33.7205 13.8376 35.9498 13.8376C38.1791 13.8376 39.4845 14.0987 41.5933 14.9623C42.6377 15.3841 43.1799 15.4644 44.8268 15.4644H46.8151L47.3573 14.2996C47.7992 13.3155 47.8996 12.8335 47.9598 10.6845L48.0402 8.21421L47.3372 7.53136C46.6142 6.82843 46.1925 5.58324 46.1925 4.11714V3.41421H33.118H20.0435L19.4611 3.99663Z" fill="white"/>
<path d="M4.05688 9.03769C3.53471 9.51969 3.33387 10.2427 3.51462 10.8251C3.57487 11.0661 4.25772 11.749 5.0209 12.3515C5.78408 12.954 6.44684 13.5364 6.50709 13.6368C6.60751 13.7774 9.72048 12.7933 10.0217 12.5122C10.1824 12.3917 8.39496 10.6444 7.04935 9.62011C5.60333 8.51551 4.79998 8.35484 4.05688 9.03769Z" fill="#4CE637"/>
<path d="M51.4142 10.4837C51.4142 12.9339 50.9925 14.8218 50.0686 16.6695C49.4661 17.8544 48.7833 18.718 46.8351 20.7264C44.2443 23.4176 43.3607 24.8234 43.0594 26.6511L42.9188 27.5146H54.8284H66.7381L66.5975 26.5707C66.3565 24.7833 65.6536 23.6586 62.9824 20.867C60.8937 18.6979 60.2912 17.9347 59.6485 16.5891C58.6644 14.6209 58.2427 12.7531 58.2427 10.3833V8.63599H54.8284H51.4142V10.4837Z" fill="#4CE637"/>
<path d="M12.713 15.5849C12.5523 15.6653 12.6728 16.1071 13.0745 16.9707C13.7975 18.5573 13.8176 19.4611 13.195 20.0435C12.6929 20.5054 11.5883 20.6259 11.046 20.2845C10.8854 20.1841 10.3833 19.3607 9.94143 18.4368C9.49959 17.513 8.99749 16.7498 8.83683 16.7096C8.35482 16.6293 6.08536 18.0753 4.69959 19.3406C5.38722e-06 23.6586 -1.30543 30.5272 1.52637 36.2912L2.22929 37.7573H14.5808H26.9322L27.7155 36.0904C29.6034 32.1941 29.6034 27.6552 27.7356 23.7992C25.7674 19.682 22.3531 16.9105 18.0552 15.8661C16.5088 15.5046 13.3557 15.3439 12.713 15.5849Z" fill="#AD1717"/>
<path d="M32.9372 17.6536C32.3347 17.8544 31.451 18.1958 30.9891 18.4368C30.5272 18.6779 29.8243 18.8787 29.4427 18.8787H28.7397L29.4628 19.923C31.1297 22.3933 32.2745 25.6469 32.4753 28.559L32.5958 30.2862L33.5197 30.5272C34.6644 30.8084 37.4561 30.8285 38.5205 30.5473L39.3038 30.3264L39.4243 28.2578C39.6452 24.7431 40.6092 22.3532 42.718 20.0636L43.8226 18.8787H42.7983C42.0753 18.8787 41.4527 18.718 40.7096 18.3364C40.1272 18.0553 39.2234 17.6938 38.6611 17.5532C37.2151 17.1515 34.2828 17.2117 32.9372 17.6536Z" fill="#D5CFA0"/>
<path d="M42.8184 34.2828L42.8787 37.6569L54.8887 37.7172L66.8787 37.7573V34.3431V30.9289H54.8285H42.7783L42.8184 34.2828Z" fill="#4CE637"/>
<path d="M31.672 35.508C31.3506 36.472 31.0494 37.3757 30.9891 37.4962C30.9088 37.6971 31.8326 37.7573 35.1263 37.7573H39.364V35.8293V33.9013L38.7213 34.0017C36.492 34.3833 34.1422 34.323 32.5356 33.841C32.3146 33.7607 32.0937 34.1824 31.672 35.508Z" fill="white"/>
<path d="M0 44.5858V48L14.1992 47.9598L28.3983 47.8996L29.3623 44.887C29.8845 43.2201 30.3866 41.7138 30.4469 41.513C30.5473 41.1916 29.7439 41.1715 15.2837 41.1715H0V44.5858Z" fill="#FFECC6"/>
<path d="M34.9858 41.513C34.6243 41.6937 34.1624 42.0753 33.9615 42.3565C33.5599 42.9188 24.1004 72.5624 24.1004 73.2452C24.1004 73.7071 24.0603 73.7071 26.7916 74.631C29.0812 75.4142 29.4427 75.4544 29.7038 74.9724C30.226 73.9682 39.364 44.7264 39.364 44.0234C39.364 41.9347 36.9339 40.549 34.9858 41.513Z" fill="#412920"/>
<path d="M42.1758 41.2519C42.1758 41.2921 42.3163 41.7138 42.477 42.1757C42.8988 43.3607 42.8586 45.1079 42.3766 46.6343C42.1557 47.3172 41.9749 47.9197 41.9749 47.9397C41.9749 47.9799 44.6862 48 48 48C51.3138 48 54.0251 47.9799 54.0251 47.9397C54.0251 47.9197 53.8444 47.3172 53.6235 46.6343C53.1414 45.1079 53.1013 43.3607 53.523 42.1757C53.6837 41.7138 53.8243 41.2921 53.8243 41.2519C53.8243 41.2117 51.2134 41.1715 48 41.1715C44.8067 41.1715 42.1758 41.2117 42.1758 41.2519Z" fill="#FFECC6"/>
<path d="M58.2427 41.5331C57.2987 41.995 56.636 43.0394 56.636 44.0235C56.636 44.7264 65.7741 73.9682 66.2962 74.9523C66.5573 75.4544 66.9188 75.4142 69.2084 74.631C71.9398 73.7071 71.8996 73.7272 71.8996 73.2452C71.8996 72.5423 62.4402 42.9189 62.0385 42.3565C61.2552 41.2519 59.5481 40.8703 58.2427 41.5331Z" fill="#412920"/>
<path d="M65.5531 41.513C65.6134 41.7138 66.1155 43.2201 66.6376 44.887L67.6017 47.8996L81.8008 47.9598L96 48V44.5858V41.1715H80.7163C66.2561 41.1715 65.4527 41.1916 65.5531 41.513Z" fill="#FFECC6"/>
<path d="M5.42261 51.4745C5.42261 52.4385 11.528 93.7506 11.7289 94.1322C12.1105 94.8753 12.6126 95.3172 13.5163 95.6987C14.159 95.9598 18.0753 96 48 96C77.9247 96 81.841 95.9598 82.4837 95.6987C83.3875 95.3172 83.8896 94.8753 84.2712 94.1322C84.5322 93.6301 90.6779 51.6351 90.5172 51.4745C90.477 51.4343 85.5565 51.4343 79.5917 51.4544L68.7465 51.5146L72.0402 61.8577C74.4502 69.4695 75.3339 72.482 75.3339 73.2251C75.354 74.9925 74.3498 76.3983 72.5624 77.1213L71.8996 77.3623V80.4351C71.8996 83.8293 71.759 84.4117 70.6544 85.6569C69.5699 86.9222 68.6862 87.2435 66.0753 87.364L63.7657 87.4644L63.5448 89.5732C63.344 91.441 63.2636 91.7021 62.7816 92.1238C62.1791 92.646 61.6569 92.7063 60.9942 92.3448C60.1105 91.8828 60.0301 91.6017 60.1506 89.4126L60.2712 87.364H55.0494H49.8075V89.1113C49.8075 91.2402 49.426 92.1841 48.5021 92.4452C46.9356 92.887 46.1925 91.8025 46.1925 89.0711V87.364H40.9506H35.7088L35.8494 89.2519C36.0101 91.4611 35.9096 91.8828 35.1465 92.2845C34.3431 92.7063 33.841 92.6661 33.2184 92.1238C32.7364 91.7021 32.6561 91.441 32.4552 89.5531L32.2343 87.4644L29.9247 87.364C27.3138 87.2435 26.4301 86.9222 25.3456 85.6569C24.241 84.4117 24.1004 83.8092 24.1004 80.4552V77.4226L22.9557 76.8201C21.4695 76.0368 20.6661 74.8318 20.646 73.3657C20.646 72.6025 21.4293 69.8912 23.7791 62.4402C25.5264 56.9774 27.0126 52.2778 27.113 51.9565L27.2937 51.4142H16.3481C10.3431 51.4142 5.42261 51.4343 5.42261 51.4745ZM14.8017 55.3506C15.0628 55.5113 15.3038 55.8326 15.364 56.0937C15.585 57.0979 20.0837 90.0552 20.0837 90.7381C20.0837 91.682 19.6619 92.3247 18.9188 92.4854C18.0753 92.6661 17.2921 92.2845 16.9908 91.5414C16.8502 91.1799 15.6653 83.1264 14.3398 73.6268C12.1707 57.8611 11.99 56.3347 12.2711 55.8527C12.8335 54.8686 13.7373 54.6879 14.8017 55.3506ZM83.4477 55.3305C83.749 55.6117 83.9498 56.0536 83.9498 56.3749C83.9498 56.6762 82.8653 64.6895 81.5599 74.149C79.8929 86.2192 79.0896 91.5213 78.8686 91.8628C78.4469 92.4854 77.503 92.7063 76.8 92.3448C75.6151 91.7824 75.595 92.2444 77.9448 75.3138C79.1297 66.7582 80.2143 58.9054 80.3548 57.8812C80.5356 56.395 80.6963 55.8728 81.0779 55.4109C81.7205 54.6477 82.7448 54.6075 83.4477 55.3305Z" fill="#FFECC6"/>
<path d="M39.5649 55.4712C38.8619 57.7205 38.2594 59.6686 38.1992 59.7891C38.1389 59.99 39.0025 60.0502 42.1556 60.0502H46.1925V58.2829C46.1925 56.1741 46.5741 55.2301 47.4979 54.9691C49.0644 54.5272 49.8075 55.6117 49.8075 58.3431V60.0502H53.8443C56.9975 60.0502 57.8611 59.99 57.8008 59.7891C57.7406 59.6686 57.1381 57.7205 56.4351 55.4712L55.1498 51.4142H48H40.8502L39.5649 55.4712Z" fill="#FFECC6"/>
<path d="M34.9657 69.9314C33.8209 73.5063 32.7163 76.7196 32.4954 77.0811C31.6921 78.3866 29.5029 79.1498 27.9766 78.6477C27.5146 78.5071 27.5146 78.5071 27.5146 80.7364C27.5146 82.8251 27.5347 82.9858 28.0167 83.4477L28.4987 83.9498H48H67.5013L67.9833 83.4477C68.4653 82.9858 68.4854 82.8251 68.4854 80.7364V78.5272L67.9431 78.6678C66.3565 79.1096 64.2879 78.3665 63.5046 77.0811C63.2837 76.7196 62.1791 73.5063 61.0343 69.9314L58.9657 63.4644H48H37.0343L34.9657 69.9314Z" fill="#FFECC6"/>
</g>
<defs>
<clipPath id="clip0_4_2">
<rect width="96" height="96" fill="white"/>
</clipPath>
</defs>
</svg>
